<svg width="119" height="119" viewBox="0 0 119 119" fill="none" xmlns="http://www.w3.org/2000/svg">
<circle cx="59.5" cy="59.5" r="59.5" fill="white"/>
<path d="M32.1429 43.2759H29.1872V40.9113C29.1872 39.6071 30.2475 38.5468 31.5517 38.5468H31.8473C32.3387 38.5468 32.734 38.1515 32.734 37.6601V35.8867C32.734 35.3953 32.3387 35 31.8473 35H31.5517C28.2857 35 25.6404 37.6453 25.6404 40.9113V49.7783C25.6404 50.7574 26.4347 51.5517 27.4138 51.5517H32.1429C33.1219 51.5517 33.9163 50.7574 33.9163 49.7783V45.0493C33.9163 44.0702 33.1219 43.2759 32.1429 43.2759ZM21.5025 43.2759H18.5468V40.9113C18.5468 39.6071 19.6071 38.5468 20.9113 38.5468H21.2069C21.6983 38.5468 22.0936 38.1515 22.0936 37.6601V35.8867C22.0936 35.3953 21.6983 35 21.2069 35H20.9113C17.6453 35 15 37.6453 15 40.9113V49.7783C15 50.7574 15.7943 51.5517 16.7734 51.5517H21.5025C22.4815 51.5517 23.2759 50.7574 23.2759 49.7783V45.0493C23.2759 44.0702 22.4815 43.2759 21.5025 43.2759Z" fill="#007BFF"/>
<path d="M81.7498 72.8098C82.5394 73.5994 82.5394 74.8794 81.7498 75.6689L75.0109 82.4065C73.7465 83.6709 71.5596 82.7847 71.5596 80.9769V77.6089H66.6078C66.4692 77.6089 66.3321 77.5803 66.2049 77.5251C66.0778 77.4699 65.9634 77.3891 65.8688 77.2878L59.9254 70.9198L64.418 66.1063L68.8641 70.87H71.5596V67.5021C71.5596 65.6962 73.745 64.8067 75.0109 66.0725L81.7498 72.8098ZM40.2237 57.3921H47.2995L51.7456 62.1558L56.2382 57.3423L50.2948 50.9743C50.2002 50.873 50.0858 50.7922 49.9587 50.7369C49.8316 50.6817 49.6944 50.6532 49.5558 50.6532H40.2237C39.6654 50.6532 39.2128 51.1058 39.2128 51.664V56.3813C39.2128 56.9395 39.6654 57.3921 40.2237 57.3921ZM71.5596 57.3921V60.7602C71.5596 62.5679 73.7465 63.4541 75.0109 62.1898L81.7498 55.4522C82.5394 54.6627 82.5394 53.3826 81.7498 52.5932L75.0109 45.8558C73.745 44.5899 71.5596 45.4796 71.5596 47.2853V50.6532H66.6078C66.4692 50.6532 66.3321 50.6817 66.2049 50.737C66.0778 50.7922 65.9634 50.873 65.8688 50.9743L47.2995 70.87H40.2237C39.6654 70.87 39.2128 71.3226 39.2128 71.8808V76.598C39.2128 77.1563 39.6654 77.6089 40.2237 77.6089H49.5558C49.836 77.6089 50.1036 77.4925 50.2948 77.2878L68.8641 57.3921H71.5596Z" fill="#007BFF"/>
<path d="M102.511 35H97.7823C96.8032 35 96.0089 35.7943 96.0089 36.7734V41.5025C96.0089 42.4815 96.8032 43.2759 97.7823 43.2759H100.738V45.6404C100.738 46.9446 99.6776 48.0049 98.3734 48.0049H98.0779C97.5865 48.0049 97.1912 48.4003 97.1912 48.8916V50.665C97.1912 51.1564 97.5865 51.5517 98.0779 51.5517H98.3734C101.639 51.5517 104.285 48.9064 104.285 45.6404V36.7734C104.285 35.7943 103.49 35 102.511 35ZM91.871 35H87.1419C86.1628 35 85.3685 35.7943 85.3685 36.7734V41.5025C85.3685 42.4815 86.1628 43.2759 87.1419 43.2759H90.0976V45.6404C90.0976 46.9446 89.0372 48.0049 87.733 48.0049H87.4375C86.9461 48.0049 86.5508 48.4003 86.5508 48.8916V50.665C86.5508 51.1564 86.9461 51.5517 87.4375 51.5517H87.733C90.999 51.5517 93.6444 48.9064 93.6444 45.6404V36.7734C93.6444 35.7943 92.85 35 91.871 35Z" fill="#007BFF"/>
</svg>
