<svg width="467" height="310" viewBox="0 0 467 310" fill="none" xmlns="http://www.w3.org/2000/svg">
<rect width="467" height="310" fill="white"/>
<circle cx="173.5" cy="139.5" r="59.5" fill="white"/>
<path d="M146.143 123.276H143.187V120.911C143.187 119.607 144.248 118.547 145.552 118.547H145.847C146.339 118.547 146.734 118.151 146.734 117.66V115.887C146.734 115.395 146.339 115 145.847 115H145.552C142.286 115 139.64 117.645 139.64 120.911V129.778C139.64 130.757 140.435 131.552 141.414 131.552H146.143C147.122 131.552 147.916 130.757 147.916 129.778V125.049C147.916 124.07 147.122 123.276 146.143 123.276ZM135.502 123.276H132.547V120.911C132.547 119.607 133.607 118.547 134.911 118.547H135.207C135.698 118.547 136.094 118.151 136.094 117.66V115.887C136.094 115.395 135.698 115 135.207 115H134.911C131.645 115 129 117.645 129 120.911V129.778C129 130.757 129.794 131.552 130.773 131.552H135.502C136.482 131.552 137.276 130.757 137.276 129.778V125.049C137.276 124.07 136.482 123.276 135.502 123.276Z" fill="#007BFF"/>
<path d="M195.75 152.81C196.539 153.599 196.539 154.879 195.75 155.669L189.011 162.406C187.747 163.671 185.56 162.785 185.56 160.977V157.609H180.608C180.469 157.609 180.332 157.58 180.205 157.525C180.078 157.47 179.963 157.389 179.869 157.288L173.925 150.92L178.418 146.106L182.864 150.87H185.56V147.502C185.56 145.696 187.745 144.807 189.011 146.073L195.75 152.81ZM154.224 137.392H161.3L165.746 142.156L170.238 137.342L164.295 130.974C164.2 130.873 164.086 130.792 163.959 130.737C163.832 130.682 163.694 130.653 163.556 130.653H154.224C153.665 130.653 153.213 131.106 153.213 131.664V136.381C153.213 136.94 153.665 137.392 154.224 137.392ZM185.56 137.392V140.76C185.56 142.568 187.747 143.454 189.011 142.19L195.75 135.452C196.539 134.663 196.539 133.383 195.75 132.593L189.011 125.856C187.745 124.59 185.56 125.48 185.56 127.285V130.653H180.608C180.469 130.653 180.332 130.682 180.205 130.737C180.078 130.792 179.963 130.873 179.869 130.974L161.3 150.87H154.224C153.665 150.87 153.213 151.323 153.213 151.881V156.598C153.213 157.156 153.665 157.609 154.224 157.609H163.556C163.836 157.609 164.104 157.493 164.295 157.288L182.864 137.392H185.56Z" fill="#007BFF"/>
<path d="M216.511 115H211.782C210.803 115 210.009 115.794 210.009 116.773V121.502C210.009 122.482 210.803 123.276 211.782 123.276H214.738V125.64C214.738 126.945 213.678 128.005 212.373 128.005H212.078C211.586 128.005 211.191 128.4 211.191 128.892V130.665C211.191 131.156 211.586 131.552 212.078 131.552H212.373C215.639 131.552 218.285 128.906 218.285 125.64V116.773C218.285 115.794 217.49 115 216.511 115ZM205.871 115H201.142C200.163 115 199.368 115.794 199.368 116.773V121.502C199.368 122.482 200.163 123.276 201.142 123.276H204.098V125.64C204.098 126.945 203.037 128.005 201.733 128.005H201.437C200.946 128.005 200.551 128.4 200.551 128.892V130.665C200.551 131.156 200.946 131.552 201.437 131.552H201.733C204.999 131.552 207.644 128.906 207.644 125.64V116.773C207.644 115.794 206.85 115 205.871 115Z" fill="#007BFF"/>
</svg>
